# xmcd CD database file
#
# Track frame offsets:
#	150
#	10100
#	33524
#	45753
#	57641
#	69347
#	82102
#	92772
#	103337
#	122686
#	135595
#	147684
#	158698
#	170394
#	182078
#	194201
#	206464
#	218322
#	229101
#	240944
#
# Disc length: 3403 seconds
#
# Revision: 0
# Processed by: cddbd v1.5.2PL0 Copyright (c) Steve Scherf et al.
# Submitted via: CDex 1.70beta2
#
DISCID=140d4914
DTITLE=B.B. KING - His Best - The Electric B.B. King
DYEAR=1968
DGENRE=Blues
TTITLE0=Tired Of Your Jive
TTITLE1=Don't Answer The Door
TTITLE2=The B.B. Jones
TTITLE3=All Over Again
TTITLE4=Paying The Cost To Be The Boss
TTITLE5=Think It Over
TTITLE6=I Done Got Wise
TTITLE7=Meet My Happiness
TTITLE8=Sweet Sixteen
TTITLE9=You Put It On Me(From Motion Picture Soundtrack ''From The Love Of Ivy'')
TTITLE10=I Don't Want You Cuttin' Off Your Hair
TTITLE11=Waitin' On You
TTITLE12=Messy But Good(From Motion Picture Soundtrack ''For The Love Of Ivy'')
TTITLE13=Night Life
TTITLE14=How Blue Can You Get(Single Version)
TTITLE15=Rockin' Awhile
TTITLE16=Help The Poor(Single Version)
TTITLE17=Stop Leadin' Me On(Single Version)
TTITLE18=Never Trust A Woman(Single Version)
TTITLE19=Sloppy Drunk(Single Version)(Mono)
EXTD=YEAR: 1968
EXTT0=
EXTT1=
EXTT2=
EXTT3=
EXTT4=
EXTT5=
EXTT6=
EXTT7=
EXTT8=
EXTT9=
EXTT10=
EXTT11=
EXTT12=
EXTT13=
EXTT14=
EXTT15=
EXTT16=
EXTT17=
EXTT18=
EXTT19=
PLAYORDER=
